<svg width="128" height="128" viewBox="0 0 128 128" fill="none" xmlns="http://www.w3.org/2000/svg">
  <rect x="40" y="16" width="76" height="88" rx="12" fill="#FFFDF9" stroke="#6A4330" stroke-width="10"/>
  <line x1="40" y1="42" x2="116" y2="42" stroke="#6A4330" stroke-width="10"/>
  <line x1="40" y1="68" x2="116" y2="68" stroke="#6A4330" stroke-width="8"/>
  <line x1="78" y1="16" x2="78" y2="104" stroke="#6A4330" stroke-width="10"/>
  <rect x="45" y="21" width="28" height="16" rx="4" fill="#E4F6EA"/>
  <rect x="12" y="36" width="76" height="84" rx="12" fill="#FFFDF9" stroke="#6A4330" stroke-width="10"/>
  <path d="M17 48C17 44.134 20.134 41 24 41H76C79.866 41 83 44.134 83 48V62H17V48Z" fill="#83B084"/>
  <line x1="12" y1="62" x2="88" y2="62" stroke="#6A4330" stroke-width="10"/>
  <rect x="25" y="76" width="20" height="20" rx="5" fill="#6A4330"/>
  <rect x="53" y="78" width="20" height="8" rx="4" fill="#6A4330"/>
  <rect x="53" y="90" width="12" height="6" rx="3" fill="#A08774"/>
</svg>
